<svg width="69" height="69" viewBox="0 0 69 69" fill="none" xmlns="http://www.w3.org/2000/svg">
	<circle cx="34.5" cy="34.5" r="34.5" fill="#F5F1E8"/>
	<g clip-path="url(#clip0_0_1)">
	<path d="M55.6 22.9117L49.6926 19.9775C49.9761 19.519 50.2267 18.9099 50.4508 18.1327C50.5453 17.8008 50.697 16.2901 49.6948 14.9605C48.7257 13.6746 47.0444 13.0175 44.7017 13.0022H44.6709C42.6974 13.0022 40.9195 14.1418 39.4119 15.681L34.8429 13.7074L30.1618 15.7377C28.5179 14.3056 26.7576 13.3122 25.2522 13.1354C22.1117 12.7686 20.226 13.8231 19.3118 16.456C18.7976 17.9384 19.3404 19.2548 19.7557 19.9666L14 22.9182V46.9049L34.9 56.0022L55.9978 46.7084L55.5978 22.9117H55.6ZM31.8079 24.2172L24.661 26.9615L15.8373 23.2042L20.5205 20.8027C22.6303 22.1519 26.8235 23.5601 31.8079 24.2172ZM34.8978 31.3213L26.1071 27.5793L34.2033 24.4705C34.7462 24.5119 35.2934 24.5469 35.8472 24.5687C36.3329 24.5884 36.8516 24.5665 37.3856 24.5119V24.5185L43.8402 27.4789L34.8978 31.3213ZM34.3506 32.2753V54.57L24.795 50.4111L25.3489 28.4417L34.3528 32.2753H34.3506ZM35.4494 32.2732L44.6358 28.3238L45.0028 50.3565L35.4494 54.5635V32.271V32.2732ZM45.194 26.896L39.3218 24.2041C43.3501 23.357 47.7543 21.3092 48.8531 20.7809L53.7562 23.2173L45.194 26.8982V26.896ZM44.6709 14.0916H44.6951C46.6554 14.1025 48.0356 14.6047 48.7938 15.5827C49.5278 16.5302 49.4421 17.6502 49.3959 17.8292C49.0751 18.9448 48.7542 19.4732 48.5279 19.722C47.6796 20.1347 40.2975 23.6496 35.8934 23.4749C35.823 23.4727 35.7505 23.4684 35.6802 23.464C36.5307 21.5777 40.192 14.0894 44.6731 14.0894L44.6709 14.0916ZM34.8429 14.8972L38.6317 16.5346C36.968 18.4973 35.7088 20.8355 34.9923 22.3375C34.1792 20.294 32.7111 18.2178 31.0343 16.5521L34.8429 14.8994V14.8972ZM20.3491 16.8119C20.8678 15.3142 21.8413 13.8362 25.1225 14.2182C28.441 14.6068 32.9814 19.6478 34.1945 23.368C29.4805 22.9684 23.7182 21.6782 20.9359 19.7657C20.7359 19.5015 19.8568 18.2244 20.3491 16.8097V16.8119ZM15.0988 24.0775L24.2588 27.9767L23.7072 49.9351L15.0988 46.1888V24.0775ZM46.0928 49.8762L45.7258 27.8566L54.5188 24.0775L54.8858 46.0032L46.0906 49.8762H46.0928Z" fill="#472A21"/>
	</g>
	<defs>
	<clipPath id="clip0_0_1">
	<rect width="42" height="43" fill="white" transform="translate(14 13)"/>
	</clipPath>
	</defs>
	</svg>
	