<svg width="69" height="69" viewBox="0 0 69 69" fill="none" xmlns="http://www.w3.org/2000/svg">
	<circle cx="34.5" cy="34.5" r="34.5" fill="#F5F1E8"/>
	<g clip-path="url(#clip0_0_1)">
	<path d="M52.0108 54.6L51.9807 54.5967C50.4549 54.4719 48.3037 52.8633 45.759 49.9469C43.7962 47.6959 42.2954 45.4531 42.2804 45.4317L42.2704 45.4186C42.2203 45.3496 41.7434 44.6989 41.0363 43.8922C41.2081 43.8232 41.3882 43.7377 41.5449 43.6342C41.9018 43.3993 44.1531 40.238 45.6105 38.0757C47.3065 35.5569 49.371 32.2971 49.5711 31.073C49.8929 29.1095 49.2075 28.0169 48.754 27.294C48.6772 27.1707 48.6022 27.0524 48.5438 26.9456C48.3421 26.5825 47.2348 25.181 45.4438 22.925C43.6895 20.7151 41.7 18.2094 40.9596 17.1135C39.5438 15.0203 38.9135 14.6506 37.5994 14.1938C36.3988 13.7732 17.8351 14.156 14.1264 14.2382L14.1447 15.0597C22.953 14.8675 36.3971 14.6851 37.3226 14.9677C38.4232 15.3505 38.9252 15.5855 40.2659 17.5687C41.0247 18.6909 43.0241 21.208 44.7884 23.4311C46.1875 25.1941 47.6333 27.0163 47.8134 27.3383C47.8835 27.4648 47.9618 27.5897 48.0452 27.7244C48.4788 28.4178 49.0208 29.2804 48.7473 30.9416C48.4388 32.8261 41.8068 42.254 41.0647 42.9622C40.8796 43.0789 40.6311 43.1725 40.4343 43.2333C39.2587 41.9961 37.7062 40.6636 36.3537 40.5042C36.3271 40.5009 36.302 40.4993 36.2754 40.496C36.212 40.1838 36.312 39.8831 36.5839 39.2407C36.8607 38.5851 40.2976 33.0315 41.5983 30.9465L41.7484 30.7066L38.4816 26.4921L25.0241 28.5821L24.6289 33.094L24.764 33.2287C25.0875 33.5524 32.6984 41.1828 33.7423 42.144C34.7362 43.0591 35.4682 44.5823 34.7228 45.7686C33.859 47.1438 32.1781 47.4215 31.3209 47.3689C30.7956 47.3295 28.6728 45.2033 27.2687 43.7969C26.0613 42.5876 24.814 41.3389 23.8535 40.56C22.4343 39.4083 21.7956 39.2308 20.9118 38.9843C20.2798 38.8069 19.491 38.5867 18.1036 37.8884C15.0719 36.3637 14.8301 32.6783 14.8284 32.6421L14.4115 32.6635L13.9946 32.6848C14.003 32.8557 14.2581 36.8747 17.7234 38.6196C19.1842 39.354 20.0147 39.5874 20.6834 39.773C21.4988 40.0014 22.0374 40.1509 23.3215 41.1926C24.247 41.9452 25.4794 43.1774 26.6717 44.372C27.1503 44.8517 27.5922 45.2921 27.9991 45.6913L24.5238 50.2788C22.0374 53.0325 19.3409 54.2156 17.5133 54.7216C15.5255 55.2737 14.108 55.1685 14.093 55.1669L14.058 55.576L14.023 55.9851C14.058 55.9884 14.2114 55.9999 14.4632 55.9999C15.9441 55.9999 20.8368 55.6072 25.1575 50.8111L28.5978 46.2713C29.8468 47.4626 30.7156 48.1526 31.2642 48.1872C31.3526 48.1921 31.4443 48.1954 31.5361 48.1954C32.8901 48.1954 34.5494 47.5973 35.4266 46.199C36.1453 45.0555 36.0786 43.1709 34.3059 41.541C34.2742 41.513 34.2376 41.4769 34.1942 41.4374C34.506 41.3093 35.113 41.1844 36.247 41.3191C38.048 41.5327 40.7028 44.6841 41.58 45.8901C41.6784 46.0364 43.1725 48.2529 45.1119 50.4776C47.8351 53.601 50.1147 55.2622 51.8874 55.4166C52.1442 55.4561 54.9941 55.8898 55.9913 55.8898V55.0683C55.0341 55.0683 52.0324 54.6082 52.0024 54.6033L52.0108 54.6ZM33.5772 40.8312C31.5261 38.8266 26.3932 33.6855 25.496 32.7851L25.8012 29.2903L38.123 27.3761L40.7412 30.7542C39.8457 32.1919 36.147 38.1464 35.8184 38.9219C35.57 39.5101 35.3965 39.9587 35.4332 40.4401C34.471 40.4302 33.9057 40.6258 33.5789 40.8312H33.5772Z" fill="#472A21"/>
	<path d="M27.3991 52.1158L28.0445 52.635C28.4464 52.1503 30.4575 49.689 30.6126 48.828L29.7921 48.6851C29.7137 49.1188 28.5147 50.7685 27.4008 52.1141L27.3991 52.1158Z" fill="#472A21"/>
	<path d="M35.5769 48.3206L34.7436 48.3474L34.8868 52.6697L35.7201 52.6428L35.5769 48.3206Z" fill="#472A21"/>
	<path d="M38.05 44.8239L37.4781 44.354L36.9444 44.9849L37.5164 45.4549C37.9783 45.8344 39.4425 48.2464 40.2713 49.8813C41.0534 51.4225 42.2024 52.6104 42.2507 52.6597L42.8527 52.0912C42.841 52.0797 41.7404 50.9394 41.0167 49.5132C40.313 48.1265 38.7204 45.3743 38.05 44.8239Z" fill="#472A21"/>
	</g>
	<defs>
	<clipPath id="clip0_0_1">
	<rect width="42" height="42" fill="white" transform="translate(14 14)"/>
	</clipPath>
	</defs>
	</svg>
	