<svg width="69" height="69" viewBox="0 0 69 69" fill="none" xmlns="http://www.w3.org/2000/svg">
	<circle cx="34.5" cy="34.5" r="34.5" fill="#F5F1E8"/>
	<g clip-path="url(#clip0_0_1)">
	<path d="M21.9306 27.4058H18.8635V28.2318H21.9306V27.4058Z" fill="#472A21"/>
	<path d="M56.7047 48.8308C56.3526 48.0824 55.6951 47.5274 54.804 47.225C53.5308 46.7939 52.1241 46.6055 50.634 46.4056C49.5727 46.2636 48.4747 46.1165 47.4167 45.8737C47.1097 45.8026 45.4526 45.3896 43.0013 44.1704C40.4782 42.9166 38.1154 41.3141 35.9761 39.406L35.9477 39.3829C35.9143 39.3581 32.7238 36.961 32.4 34.3062H35.6173V28.3044H37.6848C37.9301 29.5533 39.0415 30.4983 40.3731 30.4983C41.8833 30.4983 43.1131 29.2824 43.1131 27.7856C43.1131 26.2889 41.8849 25.073 40.3731 25.073C38.9681 25.073 37.8083 26.127 37.6531 27.4767H35.619V13H16.8661V13.826C16.6325 13.826 16.4706 13.6426 16.4539 13.4708C16.5073 14.0375 16.5207 28.4051 16.5207 33.8915V34.3045H19.486C19.6094 35.418 19.8748 39.8058 17.1698 44.5521C15.9567 46.6799 15.6863 48.6441 16.3638 50.3887C17.2115 52.566 19.2774 53.6366 19.7847 53.8051C20.2169 53.9471 26.2142 54 32.9541 54C41.5879 54 51.4416 53.9141 52.3828 53.8249C54.19 53.6514 56.451 52.2076 56.8198 51.2576C56.9917 50.8149 57.1619 49.8039 56.7014 48.8308H56.7047ZM40.3698 25.899C41.4194 25.899 42.2754 26.7449 42.2754 27.7856C42.2754 28.8264 41.421 29.6723 40.3698 29.6723C39.3185 29.6723 38.4641 28.8264 38.4641 27.7856C38.4641 26.7449 39.3185 25.899 40.3698 25.899ZM17.3467 23.6523C17.3417 20.6786 17.3333 18.3096 17.325 16.6113C17.32 15.6499 17.3133 14.8486 17.3066 14.2886C17.305 14.1102 17.3016 13.9549 17.3 13.826H34.7813V27.4767H32.8439V28.3027H34.7813V33.4785H17.355C17.355 32.1635 17.3534 27.9079 17.345 23.6506L17.3467 23.6523ZM31.559 34.3062C31.6708 35.423 32.1981 36.4753 32.8339 37.3674C30.1273 38.727 26.875 38.765 24.5772 38.542C22.5881 38.3487 20.9661 37.9373 20.2836 37.7457C20.4705 36.1366 20.3937 34.9125 20.327 34.3062H31.559ZM56.0439 50.9603C55.8253 51.522 53.9163 52.8485 52.3043 53.0022C50.0199 53.2202 21.193 53.2335 20.0383 53.017C19.6128 52.87 17.859 51.9317 17.1431 50.0913C16.5574 48.588 16.811 46.8599 17.8957 44.9568C19.2223 42.6308 19.8698 40.4071 20.1685 38.5701C20.9327 38.7815 22.518 39.1681 24.4771 39.3597C25.1379 39.4242 25.8754 39.4688 26.658 39.4688C28.7756 39.4688 31.2169 39.1433 33.3495 38.0315C34.289 39.1565 35.2736 39.9115 35.4287 40.0288C41.3126 45.2707 46.9878 46.6204 47.2265 46.6749C48.3228 46.9277 49.4392 47.0764 50.5205 47.2217C51.9689 47.415 53.3356 47.5984 54.532 48.0048C55.2129 48.2361 55.6901 48.6309 55.9471 49.1777C56.2642 49.8501 56.1774 50.61 56.0422 50.9586L56.0439 50.9603Z" fill="#472A21"/>
	<path d="M23.339 46.3644C22.1291 45.1865 22.6348 42.8704 22.6398 42.8472L22.2326 42.7564L21.8254 42.6655C21.8004 42.7779 21.2114 45.4475 22.7516 46.9509C23.4024 47.5869 24.3168 47.9041 25.4816 47.9041C26.104 47.9041 26.7965 47.8132 27.5608 47.6315L27.3655 46.8286C25.4732 47.2796 24.1182 47.1227 23.3406 46.3644H23.339Z" fill="#472A21"/>
	<path d="M28.4452 25.0729C27.0551 25.0729 25.9054 26.1038 25.7319 27.4337H23.6426V28.2597H25.7519C25.9805 29.5285 27.1002 30.4965 28.4468 30.4965C29.957 30.4965 31.1868 29.2807 31.1868 27.7839C31.1868 26.2872 29.9587 25.0713 28.4468 25.0713L28.4452 25.0729ZM28.4452 29.6705C27.3955 29.6705 26.5395 28.8247 26.5395 27.7839C26.5395 26.7431 27.3939 25.8973 28.4452 25.8973C29.4964 25.8973 30.3508 26.7431 30.3508 27.7839C30.3508 28.8247 29.4964 29.6705 28.4452 29.6705Z" fill="#472A21"/>
	</g>
	<defs>
	<clipPath id="clip0_0_1">
	<rect width="41" height="41" fill="white" transform="translate(16 13)"/>
	</clipPath>
	</defs>
	</svg>
	