<svg width="69" height="69" viewBox="0 0 69 69" fill="none" xmlns="http://www.w3.org/2000/svg">
	<circle cx="34.5" cy="34.5" r="34.5" fill="#F5F1E8"/>
	<g clip-path="url(#clip0_0_1)">
	<path d="M55.9071 24.923C54.6819 21.5572 52.6791 19.0352 51.2401 18.0296C47.286 15.2668 42.8474 14.3385 37.9814 14.083L37.9169 14.0719V14.0811C35.8164 13.9745 33.6367 13.991 31.3834 14.0407C24.2713 14.1932 16.448 17.8017 15.289 21.4635C15.1361 21.9451 15.055 22.4414 15.0366 22.9414H14.9979L15.09 37.2557C15.0937 37.7557 15.2522 38.2319 15.5488 38.6326C16.7465 40.2466 20.273 44.0646 27.129 44.6657L28.4022 44.7116C25.9369 46.4929 23.4292 48.2833 20.9953 50.0002C20.5752 50.2962 20.3265 50.7594 20.3117 51.2723C20.297 51.7852 20.5199 52.2631 20.9234 52.5811L31.107 60.6491C31.4018 60.8826 31.7574 61.0002 32.1111 61.0002C32.4649 61.0002 32.815 60.8844 33.1079 60.6546C37.6903 57.0554 52.8707 44.7153 55.8537 37.0425C57.7589 32.1399 56.9334 27.7466 55.9053 24.923H55.9071ZM16.1679 21.741C17.2052 18.4616 24.7522 15.1013 31.4036 14.958C32.4907 14.9341 33.5483 14.9175 34.5801 14.9175C35.6856 14.9175 36.7616 14.9359 37.81 14.9855C41.5429 15.673 44.4854 16.5591 46.5564 17.6179C48.2699 18.4966 48.889 19.1069 49.3423 19.5535C49.4123 19.6216 49.4768 19.6877 49.5431 19.7502C50.6928 20.844 51.0153 21.9966 51.1572 22.7668C51.3433 23.7741 51.0706 24.8201 50.4128 25.6363C50.223 25.8716 50.0166 26.1032 49.7974 26.3274C46.0368 30.1693 38.9303 31.3348 36.0504 31.6583C35.0905 31.7668 34.1047 31.7962 33.1208 31.7466C22.5946 31.2263 18.5208 28.4414 16.9565 26.1988C15.5912 24.2392 15.9505 22.4285 16.1679 21.741ZM29.2737 39.0021V43.8219L27.2009 43.7484C26.2041 43.6602 25.281 43.5002 24.4316 43.2888V37.8182H23.5103V43.0296C21.9386 42.5388 20.6415 41.8716 19.5876 41.1675L19.6742 35.3605L18.753 35.3477L18.6756 40.5057C17.5074 39.5848 16.7317 38.6767 16.2914 38.0848C16.1108 37.8421 16.015 37.5535 16.0131 37.2502L15.9431 26.3238C16.0242 26.4598 16.109 26.594 16.2011 26.7245C19.2486 31.0958 27.059 32.3679 33.0766 32.6657C34.1103 32.7171 35.1439 32.6859 36.1536 32.5719C42.7 31.8385 46.6062 29.9561 48.8245 28.3587C48.4708 28.8568 48.2497 29.0995 48.2442 29.105L48.2276 29.1252C46.4145 31.3091 38.7368 37.2006 30.1949 43.4157V39.0039H29.2737V39.0021ZM32.5404 59.9322C32.288 60.1307 31.9343 60.1307 31.6818 59.9304L21.4983 51.8624C21.3251 51.7245 21.2293 51.5186 21.2348 51.298C21.2403 51.0774 21.349 50.8771 21.5296 50.7502C22.473 50.0848 23.7848 49.1565 25.3252 48.0554C25.8485 48.3091 26.9705 48.7337 28.4077 48.5903C29.4856 48.4855 29.9444 49.3771 30.4768 50.651C30.5819 50.901 30.6795 51.1381 30.7864 51.3495C31.3834 52.5388 32.393 53.8385 34.9486 53.3293C35.2913 53.2613 35.5843 53.3219 35.8478 53.5168C36.5921 54.0701 36.9311 55.548 37.0306 56.2778C34.9891 57.991 33.3548 59.2925 32.5423 59.9304L32.5404 59.9322ZM54.9969 36.7098C54.8274 37.1473 54.6119 37.6032 54.3594 38.0738L52.2442 35.2594L51.5072 35.8109L53.8601 38.9414C53.0734 40.23 52.0379 41.6087 50.8439 43.0223L47.837 39.4396L47.1313 40.0296L50.2377 43.73C49.1636 44.9598 47.9844 46.2061 46.7572 47.4377L42.5711 43.8569L41.9723 44.5554L46.105 48.0885C44.8724 49.3035 43.6047 50.4947 42.3573 51.6307L37.904 47.8716L37.3089 48.5738L41.6682 52.2539C40.3343 53.4543 39.0353 54.5811 37.8469 55.5903C37.67 54.7355 37.2683 53.4249 36.4023 52.7796C35.9251 52.4249 35.3761 52.3054 34.7717 52.4267C32.7487 52.8311 32.1019 51.912 31.6137 50.9377C31.5215 50.7539 31.4294 50.5315 31.3299 50.2962C30.8638 49.1785 30.1618 47.491 28.3193 47.673C27.4496 47.7594 26.7126 47.5958 26.2114 47.4212C27.3556 46.6013 28.6012 45.7061 29.902 44.7631L30.1986 44.7741V44.548C37.6516 39.1381 46.7867 32.2907 48.9333 29.7171C49.0456 29.594 49.989 28.5278 51.1037 26.3293L51.0577 26.3054C51.0835 26.2741 51.1093 26.2429 51.1332 26.2116C51.9623 25.1859 52.3014 23.8697 52.0674 22.5995C51.9015 21.7024 51.5257 20.3624 50.1825 19.083C50.1217 19.0241 50.059 18.9635 49.9945 18.8991C49.5007 18.4102 48.8227 17.741 46.982 16.798C46.8309 16.7208 46.6743 16.6436 46.5159 16.5682C47.9696 17.116 49.3662 17.8366 50.715 18.7778C53.3203 20.5977 58.2527 28.3385 55.0006 36.7061L54.9969 36.7098Z" fill="#472A21"/>
	<path d="M34.0405 28.1709C34.0976 28.1709 34.1529 28.1709 34.21 28.1709C38.1493 28.1709 42.8127 25.7738 43.347 23.9926C43.7911 22.5128 42.7003 20.9669 40.0084 19.2665C38.4441 18.2775 35.9272 17.5919 34.5656 17.2702C34.2063 17.1856 33.8286 17.261 33.532 17.4797C33.2353 17.6966 33.0511 18.0294 33.0216 18.3952C32.093 18.3915 29.9372 18.4834 27.19 19.3602C25.4323 19.9209 24.2033 21.0533 23.8182 22.4669C23.5345 23.511 23.7574 24.5735 24.4152 25.3069C25.7897 26.84 30.0165 28.0974 34.0368 28.1691L34.0405 28.1709ZM42.4663 23.7316C42.2599 24.4172 40.7343 25.5294 38.7334 26.3198L39.0392 19.772C39.2069 19.8602 39.369 19.9522 39.5183 20.0459C41.7809 21.4742 42.7721 22.715 42.4663 23.7297V23.7316ZM33.9428 18.4724C33.952 18.3363 34.0331 18.2573 34.081 18.2242C34.1271 18.1893 34.2266 18.1378 34.3574 18.1691C35.3008 18.3915 36.819 18.7959 38.1364 19.3492L37.7955 26.6544C36.6605 27.0165 35.4242 27.2536 34.2192 27.2536C34.1658 27.2536 34.1123 27.2536 34.0571 27.2536C33.8083 27.25 33.5614 27.2408 33.3164 27.2261L33.9428 18.4724ZM24.7119 22.7113C25.014 21.6047 26.02 20.704 27.4756 20.2389C30.0238 19.4264 32.0635 19.3198 32.9553 19.3198H32.9608L32.4007 27.1562C29.0012 26.8216 26.0182 25.7113 25.108 24.6985C24.6584 24.1966 24.511 23.454 24.7137 22.7113H24.7119Z" fill="#472A21"/>
	<path d="M35.4939 22.1878L35.403 24.3789L36.3235 24.4169L36.4144 22.2258L35.4939 22.1878Z" fill="#472A21"/>
	<path d="M27.0118 51.9832L26.4179 52.6858L31.0845 56.6118L31.6784 55.9092L27.0118 51.9832Z" fill="#472A21"/>
	</g>
	<defs>
	<clipPath id="clip0_0_1">
	<rect width="42" height="47" fill="white" transform="translate(15 14)"/>
	</clipPath>
	</defs>
	</svg>
	