<svg width="69" height="69" viewBox="0 0 69 69" fill="none" xmlns="http://www.w3.org/2000/svg">
	<circle cx="34.5" cy="34.5" r="34.5" fill="#F5F1E8"/>
	<g clip-path="url(#clip0_0_1)">
	<path d="M38.8492 34.6204L36.739 37.0446C36.355 36.257 35.7487 34.4752 35.3935 33.4272C35.1295 32.6507 34.9007 31.98 34.7503 31.6154C34.2048 30.3007 33.3233 29.9488 32.8881 29.9488C32.8465 29.9488 32.6561 29.9488 32.3505 29.9503C26.4918 29.9709 22.8345 29.9709 21.4746 29.9488C19.3164 29.914 18.918 30.5422 18.702 31.1877C18.686 31.2335 18.6716 31.2776 18.654 31.3203C18.6156 31.4102 18.4444 32.0131 18.4428 32.0178C17.9421 33.8723 17.0878 35.995 16.6638 37.0019L14.6127 34.5809L13.9984 35.0875L16.0158 37.4691C14.9503 37.7911 14.1744 38.7696 14.1744 39.9233V49.066C14.1744 50.6822 15.5071 51.9984 17.1469 51.9984C18.7868 51.9984 20.1195 50.6837 20.1195 49.066V47.6346H33.0017V49.066C33.0017 50.6822 34.3344 51.9984 35.9742 51.9984C37.6141 51.9984 38.9468 50.6837 38.9468 49.066V46.896H38.8956V39.9233C38.8956 38.8737 38.2525 37.9694 37.3341 37.5717L39.4572 35.1317L38.8508 34.6172L38.8492 34.6204ZM19.3196 49.0676C19.3196 50.2497 18.3452 51.2109 17.1469 51.2109C15.9486 51.2109 14.9743 50.2497 14.9743 49.0676V47.6867H19.318V49.0676H19.3196ZM19.2156 32.2214C19.23 32.1662 19.3708 31.6833 19.3916 31.6249C19.4172 31.5665 19.438 31.5033 19.4604 31.437C19.5692 31.1135 19.6987 30.7111 21.4618 30.7379C22.8265 30.76 26.4902 30.76 32.3521 30.7395C32.6561 30.7395 32.8449 30.7379 32.8865 30.7379C33.0209 30.7379 33.6032 30.9367 34.008 31.9137C34.1488 32.253 34.3728 32.9127 34.6335 33.6782C35.1999 35.3448 35.6447 36.6184 36.0094 37.3586H17.3821C17.8045 36.358 18.6876 34.1769 19.2156 32.2214ZM38.1453 49.0676C38.1453 50.2497 37.1709 51.2109 35.9726 51.2109C34.7743 51.2109 33.8 50.2497 33.8 49.0676V47.6867H38.1437V49.0676H38.1453ZM38.0941 39.9248V46.847H14.9759V39.9248C14.9759 38.9448 15.7839 38.1477 16.7774 38.1477H36.291C36.4078 38.1477 36.5214 38.1604 36.6318 38.1809L36.7294 38.2677L36.7758 38.214C37.5357 38.4224 38.0941 39.1105 38.0941 39.9248Z" fill="#472A21"/>
	<path d="M52.0657 13H40.1307C39.0652 13 38.1981 13.8554 38.1981 14.9065V28.7824C38.1981 29.8336 39.0652 30.689 40.1307 30.689H45.5703V51.5991H46.3702V30.689H52.0657C53.1313 30.689 53.9984 29.8336 53.9984 28.7824V14.9065C53.9984 13.8554 53.1313 13 52.0657 13ZM53.2001 28.7824C53.2001 29.398 52.6913 29.8998 52.0673 29.8998H40.1323C39.5068 29.8998 38.9996 29.398 38.9996 28.7824V14.9065C38.9996 14.291 39.5084 13.7891 40.1323 13.7891H52.0673C52.6929 13.7891 53.2001 14.291 53.2001 14.9065V28.7824Z" fill="#472A21"/>
	<path d="M47.3829 17.8862C46.527 17.6905 45.1895 17.7016 44.2168 17.7458C43.5672 17.7758 43.0585 18.3013 43.0585 18.9437V26.0473H43.8584V23.4827H44.7431L46.8566 23.3927C47.4357 23.3675 47.9621 23.1828 48.3796 22.8593C49.186 22.2343 49.5172 21.199 49.266 20.0895C49.0132 18.9705 48.2565 18.0851 47.3829 17.8862ZM47.8853 22.239C47.6005 22.46 47.2325 22.5862 46.8214 22.6036L44.7335 22.6936H43.8568V18.9437C43.8568 18.7243 44.0312 18.5428 44.252 18.5333C45.5559 18.4749 46.6038 18.5175 47.2021 18.6548C47.7637 18.7827 48.3029 19.4582 48.4836 20.2615C48.5716 20.6482 48.6884 21.6156 47.8837 22.239H47.8853Z" fill="#472A21"/>
	<path d="M31.4018 42.6284H21.4554V43.4175H31.4018V42.6284Z" fill="#472A21"/>
	</g>
	<defs>
	<clipPath id="clip0_0_1">
	<rect width="40" height="39" fill="white" transform="translate(14 13)"/>
	</clipPath>
	</defs>
	</svg>
	