<svg width="69" height="69" viewBox="0 0 69 69" fill="none" xmlns="http://www.w3.org/2000/svg">
<circle cx="34.5" cy="34.5" r="34.5" fill="#F5F1E8"/>
<g clip-path="url(#clip0_0_1)">
<path d="M34.4992 18.8871C28.0242 18.8871 22.7548 24.1688 22.7548 30.6626C22.7548 37.1564 28.0226 42.4382 34.4992 42.4382C40.9758 42.4382 46.2436 37.1564 46.2436 30.6626C46.2436 24.1688 40.9758 18.8871 34.4992 18.8871ZM34.4992 41.6423C28.4599 41.6423 23.5469 36.7164 23.5469 30.661C23.5469 24.6057 28.4614 19.6813 34.4992 19.6813C40.537 19.6813 45.4515 24.6073 45.4515 30.6626C45.4515 36.718 40.5386 41.6439 34.4992 41.6439V41.6423Z" fill="#472A21"/>
<path d="M44.6926 42.238C47.942 39.3866 49.9984 35.2009 49.9984 30.5419C50 21.9719 43.0465 15 34.4992 15C25.9519 15 19 21.9719 19 30.5403C19 35.3217 21.1657 39.6043 24.5625 42.4572L21.2497 50.7889C21.1341 51.078 21.1943 51.4005 21.4034 51.6308C21.6141 51.8611 21.9294 51.9469 22.2272 51.8579L26.8565 50.4601L28.9557 54.5076C29.1047 54.7935 29.3898 54.9666 29.7083 54.9666C29.721 54.9666 29.7352 54.9666 29.7479 54.9666C30.0822 54.9523 30.3689 54.749 30.4973 54.4393L33.9352 46.0695C34.1221 46.0758 34.3107 46.0806 34.4992 46.0806C34.8018 46.0806 35.1028 46.071 35.4007 46.0536L38.8576 54.471C38.9844 54.7808 39.2727 54.9841 39.607 54.9984C39.6197 54.9984 39.6339 54.9984 39.6466 54.9984C39.965 54.9984 40.2518 54.8253 40.3991 54.5393L42.4983 50.4918L47.1277 51.8897C47.4255 51.9787 47.7408 51.8929 47.9515 51.6626C48.1622 51.4322 48.2208 51.1098 48.1052 50.8207L44.6926 42.2364V42.238ZM29.7653 54.1374C29.7621 54.147 29.7511 54.1724 29.713 54.174C29.6734 54.1803 29.6639 54.1517 29.6592 54.1422L27.2574 49.5101L21.9943 51.0986L21.9864 51.0828L25.2105 42.9719C27.4491 44.6589 30.1582 45.7502 33.1003 46.0154L29.7653 54.1359V54.1374ZM19.7922 30.5403C19.7922 22.4088 26.3892 15.7942 34.4992 15.7942C42.6092 15.7942 49.2063 22.4088 49.2063 30.5403C49.2063 38.6718 42.6092 45.2863 34.4992 45.2863C26.3892 45.2863 19.7922 38.6718 19.7922 30.5403ZM47.3558 51.1304L42.0991 49.5419L39.6973 54.174C39.6925 54.1835 39.6799 54.2057 39.6434 54.2057C39.607 54.2042 39.5959 54.1787 39.5927 54.1692L36.2308 45.9837C39.1602 45.6564 41.8472 44.5064 44.0541 42.7701L47.3732 51.1209L47.763 51.194L47.359 51.1304H47.3558Z" fill="#472A21"/>
<path d="M41.0994 28.1766H36.6665C36.4542 28.1766 36.2641 28.0384 36.1992 27.8366L34.8287 23.6097C34.6814 23.1553 34.0413 23.1553 33.894 23.6097L32.5236 27.8366C32.457 28.04 32.2685 28.1766 32.0562 28.1766H27.6233C27.1465 28.1766 26.9484 28.7882 27.335 29.0677L30.9203 31.6792C31.093 31.8047 31.1643 32.0271 31.0993 32.2304L29.7289 36.4574C29.5815 36.9117 30.0996 37.2898 30.4862 37.0086L34.0714 34.3972C34.2441 34.2717 34.477 34.2717 34.6497 34.3972L38.235 37.0086C38.62 37.2898 39.138 36.9117 38.9923 36.4574L37.6219 32.2304C37.5553 32.0271 37.6282 31.8047 37.8009 31.6792L41.3862 29.0677C41.7711 28.7866 41.5731 28.1766 41.0978 28.1766H41.0994Z" fill="#472A21"/>
</g>
<defs>
<clipPath id="clip0_0_1">
<rect width="31" height="40" fill="white" transform="translate(19 15)"/>
</clipPath>
</defs>
</svg>
 