<svg width="69" height="69" viewBox="0 0 69 69" fill="none" xmlns="http://www.w3.org/2000/svg">
	<circle cx="34.5" cy="34.5" r="34.5" fill="#F5F1E8"/>
	<g clip-path="url(#clip0_0_1)">
	<path d="M58.7893 22.9079C58.614 22.741 58.3599 22.6801 58.1294 22.7469L41.1376 27.6551L46.036 10.87C46.1069 10.6304 46.038 10.3731 45.8607 10.1964C45.6835 10.0196 45.4235 9.95477 45.1832 10.0294L41.5059 11.1391C41.3168 11.1961 41.1612 11.3316 41.0805 11.5123L32.6348 30.2673L23.4426 32.913C21.0594 30.2575 16.7991 29.9551 14.5853 30.7741C11.7983 31.8052 10.13 34.2446 10.0059 37.4657C9.8385 41.7946 13.3306 44.065 13.7285 44.3106C14.2386 44.6248 15.8714 45.326 17.7386 45.326C18.8239 45.326 19.9899 45.0883 21.0594 44.4009C23.5805 42.7786 24.5062 39.8187 24.7879 38.6029L29.9482 39.0664L30.4012 43.7861L30.4426 44.2811C30.0861 44.3341 29.6272 44.4166 29.3101 44.5207C29.2845 44.5286 29.251 44.5384 29.2057 44.5521C25.9736 45.5126 24.132 47.9205 24.0217 51.3282C23.9271 54.239 25.1621 56.046 26.2158 57.0496C27.3346 58.1141 28.5675 58.5953 28.9556 58.6916C29.3928 58.8016 30.3481 58.9999 31.5062 58.9999C31.9435 58.9999 32.4083 58.9725 32.8869 58.8998C35.4218 58.5148 37.2319 57.0457 38.1162 54.6475C39.9342 49.7255 36.8852 46.3748 35.928 45.4811L38.5988 36.3324L57.5839 28.1913C57.7808 28.1069 57.9285 27.932 57.9778 27.7239L58.9764 23.558C59.0335 23.3223 58.9586 23.0749 58.7834 22.9079H58.7893ZM29.7985 36.5622C29.7513 36.6703 29.7316 36.7881 29.7414 36.904L29.8537 38.0707L24.6106 37.5993C24.262 37.5678 23.9508 37.8016 23.8818 38.1414C23.7558 38.7699 22.9955 41.9851 20.5276 43.5721C18.0734 45.1512 14.9004 43.8726 14.2465 43.4719C13.8979 43.2578 10.845 41.2741 10.9907 37.5011C11.0991 34.6964 12.5349 32.5791 14.928 31.6913C16.9094 30.9567 20.7541 31.2435 22.8182 33.6888C22.9916 33.895 23.2693 33.9795 23.5273 33.9048L32.105 31.436L29.7985 36.5583V36.5622ZM35.1362 46.0881C35.7783 46.6517 38.8982 49.698 37.1964 54.3077C35.4494 59.0392 30.2279 57.9963 29.1899 57.737C29.1466 57.7272 24.843 56.4231 25.0085 51.3616C25.1069 48.3664 26.657 46.3375 29.4913 45.4949C29.5484 45.4772 29.5937 45.4635 29.6252 45.4536C29.8695 45.3731 30.3185 45.2847 30.8602 45.214C31.0886 45.1846 31.2758 45.0451 31.3742 44.8546L31.4353 44.8782L33.787 38.601L32.8652 38.2572L31.2718 42.5115L30.7321 36.8922L41.9215 12.0387L44.935 11.1313L34.9353 45.3888C34.8624 45.6422 34.9412 45.9152 35.1382 46.0881H35.1362ZM57.0599 27.3487L38.9592 35.1108L40.8106 28.7707L57.9029 23.835L57.0599 27.3487Z" fill="#472A21"/>
	<path d="M17.4077 34.9498C15.7178 34.9498 14.343 36.3207 14.343 38.0059C14.343 39.6911 15.7178 41.062 17.4077 41.062C19.0976 41.062 20.4724 39.6911 20.4724 38.0059C20.4724 36.3207 19.0976 34.9498 17.4077 34.9498ZM17.4077 40.08C16.2614 40.08 15.3278 39.149 15.3278 38.0059C15.3278 36.8628 16.2614 35.9318 17.4077 35.9318C18.554 35.9318 19.4876 36.8628 19.4876 38.0059C19.4876 39.149 18.554 40.08 17.4077 40.08Z" fill="#472A21"/>
	<path d="M31.2797 48.5668C29.5898 48.5668 28.215 49.9377 28.215 51.6229C28.215 53.3081 29.5898 54.679 31.2797 54.679C32.9696 54.679 34.3444 53.3081 34.3444 51.6229C34.3444 49.9377 32.9696 48.5668 31.2797 48.5668ZM31.2797 53.697C30.1334 53.697 29.1998 52.766 29.1998 51.6229C29.1998 50.4798 30.1334 49.5488 31.2797 49.5488C32.426 49.5488 33.3596 50.4798 33.3596 51.6229C33.3596 52.766 32.426 53.697 31.2797 53.697Z" fill="#472A21"/>
	<path d="M35.7271 35.7001C35.7271 35.0558 35.2012 34.5314 34.5551 34.5314C33.9091 34.5314 33.3832 35.0558 33.3832 35.7001C33.3832 36.3443 33.9091 36.8687 34.5551 36.8687C35.2012 36.8687 35.7271 36.3443 35.7271 35.7001ZM34.5551 35.8886C34.4508 35.8886 34.368 35.8042 34.368 35.702C34.368 35.5999 34.4527 35.5154 34.5551 35.5154C34.6576 35.5154 34.7423 35.5999 34.7423 35.702C34.7423 35.8042 34.6576 35.8886 34.5551 35.8886Z" fill="#472A21"/>
	</g>
	<defs>
	<clipPath id="clip0_0_1">
	<rect width="49" height="49" fill="white" transform="translate(10 10)"/>
	</clipPath>
	</defs>
	</svg>
	