<svg width="49" height="49" viewBox="0 0 49 49" fill="none" xmlns="http://www.w3.org/2000/svg">
<g clip-path="url(#clip0_2002_8)">
<path d="M48.7893 12.9079C48.614 12.741 48.3599 12.6801 48.1294 12.7469L31.1376 17.6551L36.036 0.870038C36.1069 0.63042 36.038 0.373124 35.8607 0.196357C35.6835 0.0195891 35.4235 -0.0452257 35.1832 0.0294096L31.5059 1.13912C31.3168 1.19608 31.1612 1.3316 31.0805 1.51229L22.6348 20.2673L13.4426 22.913C11.0594 20.2575 6.79911 19.9551 4.58527 20.7741C1.79827 21.8052 0.130005 24.2446 0.00591932 27.4657C-0.161498 31.7946 3.33062 34.065 3.72849 34.3106C4.23861 34.6248 5.87142 35.326 7.73861 35.326C8.82387 35.326 9.98988 35.0883 11.0594 34.4009C13.5805 32.7786 14.5062 29.8187 14.7879 28.6029L19.9482 29.0664L20.4012 33.7861L20.4426 34.2811C20.0861 34.3341 19.6272 34.4166 19.3101 34.5207C19.2845 34.5286 19.251 34.5384 19.2057 34.5521C15.9736 35.5126 14.132 37.9205 14.0217 41.3282C13.9271 44.239 15.1621 46.046 16.2158 47.0496C17.3346 48.1141 18.5675 48.5953 18.9556 48.6916C19.3928 48.8016 20.3481 48.9999 21.5062 48.9999C21.9435 48.9999 22.4083 48.9725 22.8869 48.8998C25.4218 48.5148 27.2319 47.0457 28.1162 44.6475C29.9342 39.7255 26.8852 36.3748 25.928 35.4811L28.5988 26.3324L47.5839 18.1913C47.7808 18.1069 47.9285 17.932 47.9778 17.7239L48.9764 13.558C49.0335 13.3223 48.9586 13.0749 48.7834 12.9079H48.7893ZM19.7985 26.5622C19.7513 26.6703 19.7316 26.7881 19.7414 26.904L19.8537 28.0707L14.6106 27.5993C14.262 27.5678 13.9508 27.8016 13.8818 28.1414C13.7558 28.7699 12.9955 31.9851 10.5276 33.5721C8.07345 35.1512 4.9004 33.8726 4.24649 33.4719C3.89787 33.2578 0.844974 31.2741 0.990725 27.5011C1.09905 24.6964 2.5349 22.5791 4.92798 21.6913C6.90941 20.9567 10.7541 21.2435 12.8182 23.6888C12.9916 23.895 13.2693 23.9795 13.5273 23.9048L22.105 21.436L19.7985 26.5583V26.5622ZM25.1362 36.0881C25.7783 36.6517 28.8982 39.698 27.1964 44.3077C25.4494 49.0392 20.2279 47.9963 19.1899 47.737C19.1466 47.7272 14.843 46.4231 15.0085 41.3616C15.1069 38.3664 16.657 36.3375 19.4913 35.4949C19.5484 35.4772 19.5937 35.4635 19.6252 35.4536C19.8695 35.3731 20.3185 35.2847 20.8602 35.214C21.0886 35.1846 21.2758 35.0451 21.3742 34.8546L21.4353 34.8782L23.787 28.601L22.8652 28.2572L21.2718 32.5115L20.7321 26.8922L31.9215 2.03867L34.935 1.13126L24.9353 35.3888C24.8624 35.6422 24.9412 35.9152 25.1382 36.0881H25.1362ZM47.0599 17.3487L28.9592 25.1108L30.8106 18.7707L47.9029 13.835L47.0599 17.3487Z" fill="#472A21"/>
<path d="M7.4077 24.9498C5.71778 24.9498 4.34299 26.3207 4.34299 28.0059C4.34299 29.6911 5.71778 31.062 7.4077 31.062C9.09763 31.062 10.4724 29.6911 10.4724 28.0059C10.4724 26.3207 9.09763 24.9498 7.4077 24.9498ZM7.4077 30.08C6.26139 30.08 5.32779 29.149 5.32779 28.0059C5.32779 26.8628 6.26139 25.9318 7.4077 25.9318C8.55402 25.9318 9.48761 26.8628 9.48761 28.0059C9.48761 29.149 8.55402 30.08 7.4077 30.08Z" fill="#472A21"/>
<path d="M21.2797 38.5668C19.5898 38.5668 18.215 39.9377 18.215 41.6229C18.215 43.3081 19.5898 44.679 21.2797 44.679C22.9696 44.679 24.3444 43.3081 24.3444 41.6229C24.3444 39.9377 22.9696 38.5668 21.2797 38.5668ZM21.2797 43.697C20.1334 43.697 19.1998 42.766 19.1998 41.6229C19.1998 40.4798 20.1334 39.5488 21.2797 39.5488C22.426 39.5488 23.3596 40.4798 23.3596 41.6229C23.3596 42.766 22.426 43.697 21.2797 43.697Z" fill="#472A21"/>
<path d="M25.7271 25.7001C25.7271 25.0558 25.2012 24.5314 24.5551 24.5314C23.9091 24.5314 23.3832 25.0558 23.3832 25.7001C23.3832 26.3443 23.9091 26.8687 24.5551 26.8687C25.2012 26.8687 25.7271 26.3443 25.7271 25.7001ZM24.5551 25.8886C24.4508 25.8886 24.368 25.8042 24.368 25.702C24.368 25.5999 24.4527 25.5154 24.5551 25.5154C24.6576 25.5154 24.7423 25.5999 24.7423 25.702C24.7423 25.8042 24.6576 25.8886 24.5551 25.8886Z" fill="#472A21"/>
</g>
<defs>
<clipPath id="clip0_2002_8">
<rect width="49" height="49" fill="white"/>
</clipPath>
</defs>
</svg>
