<svg width="69" height="69" viewBox="0 0 69 69" fill="none" xmlns="http://www.w3.org/2000/svg">
	<circle cx="34.5" cy="34.5" r="34.5" fill="#F5F1E8"/>
	<g clip-path="url(#clip0_0_1)">
	<path d="M24.9204 13.0138C21.9129 13 19.5072 12.9965 17.7712 13.0035C14.3253 13.019 14.2957 13.0485 14.1305 13.2112L14 13.341V56.9983H35.6878V13.0935L35.2564 13.09C35.2042 13.09 30.0414 13.0398 24.9204 13.0156V13.0138ZM34.818 56.1344H14.8697V13.9106C16.9206 13.8223 27.4653 13.8811 34.818 13.9521V56.1362V56.1344Z" fill="#472A21"/>
	<path d="M16.5257 36.3823H33.2612V15.6036H16.5257V36.3823ZM17.3954 16.4692H32.3915V35.5168H17.3954V16.4692Z" fill="#472A21"/>
	<path d="M18.8514 21.8997H30.8381V18.0168H18.8514V21.8997ZM19.7211 18.8823H29.9684V21.0341H19.7211V18.8823Z" fill="#472A21"/>
	<path d="M16.4248 54.5868H33.3621V42.9606H16.4248V54.5868ZM17.2946 43.8244H32.4923V53.7195H17.2946V43.8244Z" fill="#472A21"/>
	<path d="M20.2708 39.7269C20.2708 38.6726 19.408 37.814 18.3487 37.814C17.2893 37.814 16.4266 38.6726 16.4266 39.7269C16.4266 40.7811 17.2893 41.6398 18.3487 41.6398C19.408 41.6398 20.2708 40.7811 20.2708 39.7269ZM17.2946 39.7269C17.2946 39.1487 17.766 38.6795 18.3469 38.6795C18.9279 38.6795 19.3993 39.1487 19.3993 39.7269C19.3993 40.3051 18.9279 40.7742 18.3469 40.7742C17.766 40.7742 17.2946 40.3051 17.2946 39.7269Z" fill="#472A21"/>
	<path d="M50.4054 26.9183C52.8251 26.9183 54.7924 24.9604 54.7924 22.5524C54.7924 20.1444 52.8251 18.1865 50.4054 18.1865C47.9858 18.1865 46.0185 20.1444 46.0185 22.5524C46.0185 24.9604 47.9858 26.9183 50.4054 26.9183ZM50.4054 19.052C52.345 19.052 53.9227 20.6222 53.9227 22.5524C53.9227 24.4826 52.345 26.0527 50.4054 26.0527C48.4659 26.0527 46.8882 24.4826 46.8882 22.5524C46.8882 20.6222 48.4659 19.052 50.4054 19.052Z" fill="#472A21"/>
	<path d="M42.3778 19.7878C42.9796 19.7878 43.4702 19.2996 43.4702 18.7006C43.4702 18.1016 42.9796 17.6135 42.3778 17.6135C41.7759 17.6135 41.2854 18.1016 41.2854 18.7006C41.2854 19.2996 41.7759 19.7878 42.3778 19.7878ZM42.3778 18.4808C42.4995 18.4808 42.6004 18.5794 42.6004 18.7023C42.6004 18.8253 42.5013 18.9239 42.3778 18.9239C42.2543 18.9239 42.1551 18.8253 42.1551 18.7023C42.1551 18.5794 42.2543 18.4808 42.3778 18.4808Z" fill="#472A21"/>
	<path d="M40.6401 19.8085C40.6401 19.1542 40.1043 18.621 39.4468 18.621C38.7893 18.621 38.2535 19.1542 38.2535 19.8085C38.2535 20.4629 38.7893 20.9961 39.4468 20.9961C40.1043 20.9961 40.6401 20.4629 40.6401 19.8085ZM39.4468 20.1288C39.2693 20.1288 39.1232 19.9851 39.1232 19.8068C39.1232 19.6285 39.2676 19.4848 39.4468 19.4848C39.6259 19.4848 39.7703 19.6285 39.7703 19.8068C39.7703 19.9851 39.6259 20.1288 39.4468 20.1288Z" fill="#472A21"/>
	<path d="M38.1839 21.3371C37.5542 21.3371 37.0411 21.8478 37.0411 22.4744C37.0411 23.1011 37.5542 23.6118 38.1839 23.6118C38.8136 23.6118 39.3267 23.1011 39.3267 22.4744C39.3267 21.8478 38.8136 21.3371 38.1839 21.3371ZM38.1839 22.7445C38.0343 22.7445 37.9108 22.6233 37.9108 22.4727C37.9108 22.3221 38.0326 22.2009 38.1839 22.2009C38.3352 22.2009 38.457 22.3221 38.457 22.4727C38.457 22.6233 38.3352 22.7445 38.1839 22.7445Z" fill="#472A21"/>
	<path d="M57.9704 32.0337C57.9235 31.0816 57.833 29.3089 56.2257 28.864C55.1264 28.5593 45.9907 28.5784 43.6424 28.5888V23.7053C43.6824 23.4508 43.8198 22.3429 43.2632 21.5829C42.9901 21.2107 42.5883 20.9822 42.0977 20.9181C41.5672 20.8489 41.0993 20.977 40.7444 21.2869C40.0591 21.8858 39.9843 22.973 39.9843 23.4127C39.9843 23.4993 39.9808 23.7053 39.9756 23.9926C39.9495 25.4468 39.8869 28.8519 40.0538 30.1139C40.1878 31.1404 41.5498 32.2916 43.5171 32.3609C44.4547 32.3938 45.0287 32.4111 45.3679 32.418C45.3766 35.4717 45.4323 53.9411 45.4323 54.7045C45.4323 56.0825 46.0516 56.8148 47.2709 56.8788C48.6469 56.9515 49.4992 56.2435 49.6697 54.888C49.7879 53.9497 49.6818 44.6917 49.6557 42.5209H51.1447C51.1517 44.9323 51.1952 54.5193 51.51 55.5857C51.7483 56.3924 52.3763 56.9221 53.1486 56.9654C53.1799 56.9654 53.2112 56.9688 53.2443 56.9688C53.9592 56.9688 54.8759 56.5239 55.4099 55.2619L55.4447 55.1806V43.7898C55.5473 43.8642 55.6621 43.9265 55.7926 43.9698C56.3249 44.1481 56.9198 43.9646 57.5634 43.4245L57.6486 43.3535L57.6886 43.2514C57.7008 43.222 57.9722 42.5209 57.9722 41.8665C57.9722 41.7609 57.9739 41.4164 57.9774 40.9126C57.9913 38.5774 58.0261 33.107 57.9722 32.0389L57.9704 32.0337ZM57.1077 40.9023C57.1042 41.4095 57.1024 41.7574 57.1024 41.8613C57.1024 42.2283 56.9789 42.642 56.9146 42.8307C56.5702 43.1008 56.2727 43.2133 56.0709 43.1458C55.7735 43.0471 55.5995 42.5693 55.5613 42.4101L55.443 42.4378V31.4105H54.5732V54.9988C54.1906 55.8419 53.6183 56.1188 53.1973 56.0981C52.7955 56.0756 52.4772 55.7917 52.3432 55.3398C52.1119 54.5574 52.0197 46.9854 52.0127 42.0846V41.6518H48.7738L48.7791 42.0898C48.8208 45.3426 48.9078 53.9619 48.8051 54.7772C48.6921 55.6791 48.2329 56.0565 47.3144 56.0115C46.5647 55.9717 46.3003 55.6289 46.3003 54.7011C46.3003 53.8718 46.2359 32.2068 46.2359 31.9887V31.5576H45.8011C45.7959 31.5576 45.3245 31.5576 43.5467 31.4936C41.8385 31.433 40.9775 30.474 40.9149 29.9996C40.7583 28.8 40.821 25.3169 40.8453 24.0065C40.8505 23.7105 40.854 23.4993 40.854 23.411C40.854 22.9176 40.9758 22.2355 41.3167 21.936C41.482 21.7906 41.6994 21.7387 41.9829 21.7751C42.2369 21.8079 42.4248 21.9118 42.557 22.0901C42.8788 22.5264 42.8248 23.3227 42.7779 23.591L42.7709 29.4595H43.2075C47.9006 29.4318 55.1768 29.4751 55.9909 29.7001C56.8293 29.9321 57.0329 30.7475 57.099 32.0787C57.1511 33.1226 57.1181 38.5756 57.1042 40.904L57.1077 40.9023Z" fill="#472A21"/>
	</g>
	<defs>
	<clipPath id="clip0_0_1">
	<rect width="44" height="44" fill="white" transform="translate(14 13)"/>
	</clipPath>
	</defs>
	</svg>
	